<?xml version="1.0" standalone="no"?>
<!DOCTYPE svg PUBLIC "-//W3C//DTD SVG 20010904//EN"
 "http://www.w3.org/TR/2001/REC-SVG-20010904/DTD/svg10.dtd">
<svg version="1.0" xmlns="http://www.w3.org/2000/svg"
 width="512.000000pt" height="512.000000pt" viewBox="0 0 512.000000 512.000000"
 preserveAspectRatio="xMidYMid meet">
<metadata>
Created by potrace 1.14, written by Peter Selinger 2001-2017
</metadata>
<g transform="translate(0.000000,512.000000) scale(0.100000,-0.100000)"
fill="#000000" stroke="none">
<path d="M2505 4938 c-32 -18 -35 -28 -35 -140 l0 -108 -109 0 c-119 0 -141
-9 -141 -54 0 -40 26 -51 119 -53 47 0 96 -2 109 -2 l22 -1 -1 -237 -1 -238
-26 -43 c-22 -34 -128 -210 -273 -450 -9 -15 -25 -43 -36 -62 -11 -19 -65
-107 -118 -195 -54 -88 -120 -197 -147 -242 l-48 -82 0 -345 c0 -318 -1 -347
-17 -361 -10 -8 -153 -116 -318 -241 -165 -124 -303 -232 -307 -238 -4 -6 -8
-360 -8 -787 l0 -776 -52 1 -53 1 -2 555 c-1 305 -3 567 -3 583 0 15 -9 36
-20 47 -26 26 -60 14 -108 -38 -19 -20 -111 -117 -204 -214 -216 -225 -208
-216 -209 -252 0 -17 -1 -177 -2 -356 l-2 -325 -130 -1 c-172 -2 -162 -1 -179
-27 -20 -30 -10 -64 23 -74 14 -5 1063 -9 2344 -9 l2319 1 19 24 c24 29 24 33
0 62 -17 22 -24 23 -164 23 l-145 1 -1 325 c0 179 0 340 0 358 -1 27 -18 50
-109 145 -146 151 -269 280 -306 320 -17 19 -40 38 -51 44 -24 13 -60 1 -69
-22 -3 -9 -6 -277 -7 -595 l-1 -577 -54 0 -54 0 0 778 c0 736 -1 780 -18 797
-10 9 -134 105 -276 212 -143 107 -281 212 -308 233 l-48 37 0 348 0 347 -187
280 c-103 154 -191 282 -195 283 -5 2 -8 8 -8 13 0 4 -37 64 -83 131 -46 68
-120 178 -166 245 l-83 123 1 231 c0 127 2 233 5 236 3 3 52 6 109 7 112 1
137 11 137 51 0 44 -28 55 -143 55 l-107 0 -1 33 c0 17 0 65 0 106 1 44 -3 79
-10 88 -21 25 -43 32 -64 21z m160 -1949 c107 -40 175 -138 181 -260 7 -161
-122 -293 -286 -293 -112 1 -200 55 -256 157 -25 45 -29 63 -28 127 1 133 68
230 186 271 70 24 135 24 203 -2z m45 -1715 c141 -40 250 -148 285 -281 12
-45 15 -127 15 -383 l0 -326 -451 0 -450 0 3 350 3 351 32 66 c67 137 180 211
368 242 39 6 141 -4 195 -19z"/>
</g>
</svg>
